<mxfile host="app.diagrams.net" modified="2024-07-18T06:24:49.485Z" agent="Mozilla/5.0 (Windows NT 10.0; Win64; x64) AppleWebKit/537.36 (KHTML, like Gecko) Chrome/126.0.0.0 Safari/537.36 Edg/126.0.0.0" version="24.6.5" etag="12FAV_hJxxWzNxBmQC5O" type="github">
  <diagram name="Page-1" id="Lo409JUYX8GOUG-F6ODL">
    <mxGraphModel>
      <root>
        <mxCell id="0" />
        <mxCell id="1" parent="0" />
      </root>
    </mxGraphModel>
  </diagram>
</mxfile>
